<?xml version="1.0" standalone="no"?>
<!DOCTYPE svg PUBLIC "-//W3C//DTD SVG 20010904//EN"
 "http://www.w3.org/TR/2001/REC-SVG-20010904/DTD/svg10.dtd">
<svg version="1.0" xmlns="http://www.w3.org/2000/svg"
 width="512.000000pt" height="512.000000pt" viewBox="0 0 512.000000 512.000000"
 preserveAspectRatio="xMidYMid meet">
<metadata>
Created by potrace 1.11, written by Peter Selinger 2001-2013
</metadata>
<g transform="translate(0.000000,512.000000) scale(0.100000,-0.100000)"
fill="#000000" stroke="none">
<path d="M2452 5089 c-12 -5 -22 -6 -22 -2 0 3 -6 1 -12 -4 -7 -6 -26 -13 -43
-17 -79 -19 -171 -107 -1211 -1148 l-1052 -1053 -41 -85 c-23 -47 -41 -86 -41
-88 1 -1 -2 -28 -6 -60 -8 -64 -8 -115 1 -152 3 -14 8 -38 10 -53 3 -16 20
-59 37 -95 30 -63 100 -135 1112 -1148 1004 -1004 1086 -1083 1146 -1111 57
-27 79 -34 150 -50 25 -6 133 -4 165 3 92 18 121 30 203 81 15 9 498 487 1075
1062 711 711 1062 1067 1091 1111 102 152 113 339 29 510 -35 73 -72 110
-1107 1146 -1036 1036 -1073 1072 -1146 1107 -41 21 -100 42 -130 47 -62 12
-174 11 -208 -1z"/>
</g>
</svg>
